<svg width="70" height="70" viewBox="0 0 70 70" fill="none" xmlns="http://www.w3.org/2000/svg">
<g clip-path="url(#clip0_86_339)">
<path d="M35 0C15.6702 0 0 15.6702 0 35C0 54.3309 15.6702 70 35 70C54.3309 70 70 54.3309 70 35C70 15.6702 54.3309 0 35 0ZM35 65.6939C18.1136 65.6939 4.375 51.8864 4.375 34.9999C4.375 18.1135 18.1136 4.37486 35 4.37486C51.8864 4.37486 65.625 18.1135 65.625 34.9999C65.625 51.8862 51.8864 65.6939 35 65.6939ZM50.3125 32.8125H37.1875V19.6875C37.1875 18.48 36.2075 17.5 35 17.5C33.7925 17.5 32.8125 18.48 32.8125 19.6875V32.8125H19.6875C18.48 32.8125 17.5 33.7925 17.5 35C17.5 36.2075 18.48 37.1875 19.6875 37.1875H32.8125V50.3125C32.8125 51.52 33.7925 52.5 35 52.5C36.2075 52.5 37.1875 51.52 37.1875 50.3125V37.1875H50.3125C51.52 37.1875 52.5 36.2075 52.5 35C52.5 33.7925 51.52 32.8125 50.3125 32.8125Z" fill="#FAF3D9"/>
</g>
<defs>
<clipPath id="clip0_86_339">
<rect width="70" height="70" fill="white"/>
</clipPath>
</defs>
</svg>
